<svg width="234" height="92" viewBox="0 0 234 92" fill="none" xmlns="http://www.w3.org/2000/svg">
<path d="M0 92V83.2626L40.5224 13.8771L0 26.5978V18.5L40.5224 4.62575H53.3431L53.0486 13.8771L10 83.2626L48 64.6313V73.5L10 92L0 92Z" fill="#0A0569"/>
<path d="M73.1953 92C65.9455 92 60.1839 89.1732 55.9103 83.5196C51.6368 77.7803 49.5 70.0708 49.5 60.3911C49.5 53.2812 50.6829 47.028 53.0486 41.6313C55.4906 36.149 58.8484 31.866 63.1219 28.7822C67.3955 25.6984 72.3177 24.1565 77.8886 24.1565C81.3227 24.1565 84.3753 24.9702 87.0462 26.5978C89.7172 28.2254 91.8158 30.4097 93.3421 33.1509C94.9447 35.892 95.7459 39.0186 95.7459 42.5307C95.7459 46.8995 94.4868 50.797 91.9684 54.2235C89.5264 57.5643 86.0923 60.2198 81.6661 62.19C77.2399 64.0745 72.1651 65.0168 66.4416 65.0168C63.7706 65.0168 61.0996 64.8883 58.4287 64.6313C59.0392 70.3706 60.6418 74.9106 63.2364 78.2514C65.9074 81.5922 69.3415 83.2626 73.5387 83.2626C76.5913 83.2626 79.6057 82.663 82.5819 81.4637C85.5581 80.1788 88.0764 78.4656 90.1369 76.324L94.2578 82.6201C88.458 88.8734 81.4372 92 73.1953 92ZM66.6705 56.5363C72.623 56.5363 77.507 55.2514 81.3227 52.6816C85.1384 50.1117 87.0462 46.8566 87.0462 42.9162C87.0462 40.0037 86.1305 37.6052 84.2989 35.7207C82.5437 33.8361 80.2925 32.8939 77.5452 32.8939C72.2796 32.8939 67.8915 35.0354 64.3811 39.3185C60.947 43.5158 58.9247 49.041 58.3142 55.8939C59.8405 56.1509 61.2904 56.3222 62.6641 56.4078C64.0377 56.4935 65.3732 56.5363 66.6705 56.5363Z" fill="#0A0569"/>
<path d="M96.5 92L96.3183 38.8045L95.1736 25.9553L102.729 25.3129L105.018 38.676C107.231 34.2216 110.017 30.7095 113.374 28.1397C116.732 25.4842 120.395 24.1565 124.363 24.1565C136.879 24.1565 143.137 33.1509 143.137 51.1397V92H134.437V51.1397C134.437 38.9758 130.583 32.8939 122.875 32.8939C119.594 32.8939 116.579 34.1788 113.832 36.7486C111.161 39.3185 109.024 42.7877 107.422 47.1564C105.819 51.5252 105.018 56.4507 105.018 61.933V92H96.5Z" fill="#0A0569"/>
<path d="M143.137 92L143.709 25.9553H152.409L152 92H143.137ZM148.059 14.905C145.998 14.905 144.358 14.2626 143.137 12.9777C141.992 11.6071 141.42 9.76536 141.42 7.45251C141.42 5.22532 141.992 3.42644 143.137 2.05586C144.358 0.685287 145.998 0 148.059 0C150.043 0 151.646 0.685287 152.867 2.05586C154.088 3.42644 154.698 5.22532 154.698 7.45251C154.698 9.59404 154.088 11.3929 152.867 12.8492C151.646 14.2197 150.043 14.905 148.059 14.905Z" fill="#0A0569"/>
<path d="M171 92C166.879 92 163.908 90.4842 162 88C160.092 85.4302 159.048 79.8788 159.048 74.3965V32.5082H143.709V24.1565L159.048 24.1563L161.795 4.88253H167.748V24.1563H187.182L181.141 32.5082H167.748V74.3965C167.748 79.1078 169.465 81.4635 172.899 81.4635C175.493 81.4635 176 80 179 79L184.575 84.2903C180.149 88.2308 175.655 92 171 92Z" fill="#0A0569"/>
<path d="M187.182 92V2.05593H195.881V40.4749C198.095 36.0205 200.88 32.5084 204.238 29.9386C207.596 27.2831 211.259 25.9554 215.227 25.9554C227.742 25.9554 234 34.9498 234 52.9386V92H225.3V52.9386C225.3 40.7747 221.446 34.6928 213.739 34.6928C210.457 34.6928 207.443 35.9777 204.696 38.5475C202.025 41.1174 199.888 44.5866 198.285 48.9554C196.683 53.3241 195.881 58.2496 195.881 63.7319V92H187.182Z" fill="#0A0569"/>
</svg>
